<?xml version="1.0" encoding="UTF-8" standalone="no"?>
<!-- Generator: Adobe Illustrator 25.4.1, SVG Export Plug-In . SVG Version: 6.00 Build 0)  -->

<svg
   version="1.1"
   id="Layer_1"
   x="0px"
   y="0px"
   viewBox="0 0 59.300535 59.300532"
   xml:space="preserve"
   width="59.300533"
   height="59.300533"
   sodipodi:docname="compact.svg"
   inkscape:version="1.4-beta (62f545b, 2024-04-22)"
   xmlns:inkscape="http://www.inkscape.org/namespaces/inkscape"
   xmlns:sodipodi="http://sodipodi.sourceforge.net/DTD/sodipodi-0.dtd"
   xmlns:xlink="http://www.w3.org/1999/xlink"
   xmlns="http://www.w3.org/2000/svg"
   xmlns:svg="http://www.w3.org/2000/svg"><sodipodi:namedview
   id="namedview1"
   pagecolor="#505050"
   bordercolor="#eeeeee"
   borderopacity="1"
   inkscape:showpageshadow="0"
   inkscape:pageopacity="0"
   inkscape:pagecheckerboard="0"
   inkscape:deskcolor="#505050"
   inkscape:zoom="7.1584516"
   inkscape:cx="9.778651"
   inkscape:cy="28.56763"
   inkscape:window-width="1920"
   inkscape:window-height="1054"
   inkscape:window-x="0"
   inkscape:window-y="0"
   inkscape:window-maximized="1"
   inkscape:current-layer="Layer_1" /><defs
   id="defs82" />
<style
   type="text/css"
   id="style1">
	.st0{fill:#FFFFFF;}
	.st1{fill:#03B9E2;}
	.st2{fill:#9DD7DD;}
	.st3{fill:#7ECFE6;}
	.st4{fill:#5C7891;}
	.st5{font-family:'ArialMT';}
	.st6{font-size:46.1996px;}
	.st7{font-family:'Arial-BoldMT';}
	.st8{font-size:11.305px;}
	.st9{stroke:#000000;stroke-width:1.4446;stroke-miterlimit:10;}
	.st10{fill:#FFFFFF;stroke:#000000;stroke-width:1.0329;stroke-miterlimit:10;}
	.st11{fill:#FFFFFF;stroke:#221F1F;stroke-width:0.8386;stroke-miterlimit:10;}
	.st12{font-size:41.8731px;}
	.st13{font-size:10.2463px;}
	.st14{fill:#EC1E24;}
	.st15{font-size:45.9299px;}
	.st16{font-size:11.239px;}
</style>







<g
   id="layer15"
   transform="translate(-27.129135,-594.34973)"
   style="display:inline"><g
     id="g238"
     transform="translate(-154.54683,124.90004)"><g
       id="g82"
       style="display:inline"
       transform="translate(1.176777,-4.4999898)">
	
	
	
	
	
	
	
	
	
	
	
	
	
	
	
	
	
	
	
	
	
	
	
	
	
	
	
	
	
	
	
	
	<g
   id="g8"
   style="display:inline"><path
     style="display:inline;fill:#9dd7dd;fill-opacity:1;stroke:#111111;stroke-width:1.5;stroke-linejoin:round;stroke-dasharray:none;stroke-opacity:1"
     d="m 51.15,166.45 -19.4,4.19764 10.7,4.20236 z"
     id="path1" /><path
     style="display:inline;fill:#03b9e2;fill-opacity:1;stroke:#111111;stroke-width:1.5;stroke-linejoin:round;stroke-dasharray:none;stroke-opacity:1"
     d="m 51.15,166.45 0.1,17.7 -8.8,-9.3 z"
     id="path2" /><path
     style="display:inline;fill:#5c7891;fill-opacity:1;stroke:#111111;stroke-width:1.5;stroke-linejoin:round;stroke-dasharray:none;stroke-opacity:1"
     d="m 51.25,184.15 -13.7,0.6 4.9,-9.9 z"
     id="path3" /><path
     style="display:inline;fill:#7ecfe6;fill-opacity:1;stroke:#111111;stroke-width:1.5;stroke-linejoin:round;stroke-dasharray:none;stroke-opacity:1"
     d="m 37.55,184.75 -5.8,-14.10236 10.7,4.20236 z"
     id="path4" /><path
     style="display:inline;fill:#5c7891;fill-opacity:1;stroke:#111111;stroke-width:1.5;stroke-linejoin:round;stroke-dasharray:none;stroke-opacity:1"
     d="m 37.55,184.75 4.3,9.79764 9.4,-10.39764 z"
     id="path5" /><path
     style="display:inline;fill:#7ecfe6;fill-opacity:1;stroke:#111111;stroke-width:1.5;stroke-linejoin:round;stroke-dasharray:none;stroke-opacity:1"
     d="m 37.55,184.75 -6.6,15.29764 10.9,-5.5 z"
     id="path6" /><path
     style="display:inline;fill:#9dd7dd;fill-opacity:1;stroke:#111111;stroke-width:1.5;stroke-linejoin:round;stroke-dasharray:none;stroke-opacity:1"
     d="m 51.65,204.55 -9.8,-10.00236 -10.9,5.5 z"
     id="path7" /><path
     style="display:inline;fill:#03b9e2;fill-opacity:1;stroke:#111111;stroke-width:1.5;stroke-linejoin:round;stroke-dasharray:none;stroke-opacity:1"
     d="m 51.65,204.55 -0.4,-20.4 -9.4,10.39764 z"
     id="path8" /></g><g
   id="g83"
   style="display:inline"><path
     class="st10"
     d="m 45.8,174.8 c 0,1.9 -1.4,3.4 -3.3,3.4 -1.9,0 -3.4,-1.4 -3.4,-3.3 0,-1.9 1.4,-3.4 3.3,-3.4 1.8,0 3.4,1.4 3.4,3.3 z"
     id="path72"
     style="fill:#f9fbfc;fill-opacity:1;stroke:#111111;stroke-width:1;stroke-dasharray:none;stroke-opacity:1" /><path
     class="st10"
     d="m 54.6,184.1 c 0,1.9 -1.4,3.4 -3.3,3.4 -1.9,0 -3.4,-1.4 -3.4,-3.3 0,-1.9 1.4,-3.4 3.3,-3.4 1.8,0 3.4,1.5 3.4,3.3 z"
     id="path73"
     style="fill:#f9fbfc;fill-opacity:1;stroke:#111111;stroke-width:1;stroke-dasharray:none;stroke-opacity:1" /><path
     class="st10"
     d="m 45.2,194.5 c 0,1.9 -1.4,3.4 -3.3,3.4 -1.9,0 -3.4,-1.4 -3.4,-3.3 0,-1.9 1.4,-3.4 3.3,-3.4 1.8,-0.1 3.3,1.4 3.4,3.3 z"
     id="path75"
     style="fill:#f9fbfc;fill-opacity:1;stroke:#111111;stroke-width:1;stroke-dasharray:none;stroke-opacity:1" /><path
     class="st10"
     d="m 35.1,170.6 c 0,1.9 -1.4,3.4 -3.3,3.4 -1.9,0 -3.4,-1.4 -3.4,-3.3 0,-1.9 1.4,-3.4 3.3,-3.4 1.8,-0.1 3.3,1.4 3.4,3.3 z"
     id="path78"
     style="fill:#f9fbfc;fill-opacity:1;stroke:#111111;stroke-width:1;stroke-dasharray:none;stroke-opacity:1" /><path
     class="st10"
     d="m 40.9,184.7 c 0,1.9 -1.4,3.4 -3.3,3.4 -1.9,0 -3.4,-1.4 -3.4,-3.3 0,-1.9 1.4,-3.4 3.3,-3.4 1.9,0 3.4,1.5 3.4,3.3 z"
     id="path79"
     style="fill:#f9fbfc;fill-opacity:1;stroke:#111111;stroke-width:1;stroke-dasharray:none;stroke-opacity:1" /><path
     class="st10"
     d="m 34.3,200 c 0,1.9 -1.4,3.4 -3.3,3.4 -1.9,0 -3.4,-1.4 -3.4,-3.3 0,-1.9 1.4,-3.4 3.3,-3.4 1.8,-0.1 3.3,1.4 3.4,3.3 z"
     id="path80"
     style="display:inline;fill:#f9fbfc;fill-opacity:1;stroke:#111111;stroke-width:1;stroke-dasharray:none;stroke-opacity:1" /><path
     class="st10"
     d="m 54.5,166.4 c 0,1.9 -1.4,3.4 -3.3,3.4 -1.9,0 -3.4,-1.4 -3.4,-3.3 0,-1.9 1.4,-3.4 3.3,-3.4 1.8,0 3.4,1.4 3.4,3.3 z"
     id="path81"
     style="fill:#f9fbfc;fill-opacity:1;stroke:#111111;stroke-width:1;stroke-dasharray:none;stroke-opacity:1" /><path
     class="st11"
     d="m 55,204.5 c 0,1.9 -1.4,3.4 -3.3,3.4 -1.9,0 -3.4,-1.4 -3.4,-3.3 0,-1.9 1.4,-3.4 3.3,-3.4 1.8,0 3.4,1.5 3.4,3.3 z"
     id="path82"
     style="fill:#f9fbfc;fill-opacity:1;stroke:#111111;stroke-width:1;stroke-dasharray:none;stroke-opacity:1" /></g>
</g></g></g><g
   id="layer19"
   transform="translate(-27.129135,-594.34973)"><rect
     style="fill:none;stroke:none;stroke-width:1.04774;stroke-linejoin:round;stroke-dasharray:none;stroke-opacity:1"
     id="rect250"
     width="59.300533"
     height="59.300533"
     x="27.129135"
     y="594.34973" /><g
     id="g252"
     transform="translate(-1.2934832,172)"
     style="display:inline"><text
       transform="scale(1.0198039,0.98058068)"
       class="st5 st15"
       id="text251"
       style="display:none;fill:#f9fbfc;fill-opacity:1;stroke-width:1.0198"
       x="54.454952"
       y="472.82639"><tspan
         style="font-style:normal;font-variant:normal;font-weight:bold;font-stretch:normal;font-family:'Helvetica LT Std';-inkscape-font-specification:'Helvetica LT Std Bold';fill:#f9fbfc;fill-opacity:1;stroke-width:1.0198"
         id="tspan251">B</tspan></text><text
       class="st7 st16"
       id="text252"
       style="display:none;fill:#f9fbfc;fill-opacity:1"
       x="58.55098"
       y="473.93222"><tspan
         style="font-style:normal;font-variant:normal;font-weight:bold;font-stretch:normal;font-family:'Helvetica LT Std';-inkscape-font-specification:'Helvetica LT Std Bold';fill:#f9fbfc;fill-opacity:1"
         id="tspan252">raiAn</tspan></text><use
       x="0"
       y="0"
       xlink:href="#g82"
       id="use252"
       transform="translate(1,271)"
       style="display:inline" /><path
       style="font-weight:bold;font-size:45.9299px;font-family:'Helvetica LT Std';-inkscape-font-specification:'Helvetica LT Std Bold';fill:#f9fbfc;stroke-width:1.0198"
       d="m 57.945625,472.82639 h 13.96269 c 6.751695,0 8.542961,-1.14825 10.426087,-2.98545 1.745336,-1.6994 2.847654,-4.17962 2.847654,-6.79762 0,-3.26103 -1.056388,-6.47612 -5.098219,-7.99181 1.377897,-0.68894 4.041831,-2.02091 4.041831,-6.75169 0,-3.39881 -2.066845,-8.4511 -10.150508,-8.4511 H 57.945625 Z m 6.613905,-14.51385 h 8.772612 c 2.480214,0 4.960429,1.10231 4.960429,3.9959 0,3.35288 -1.929056,4.82264 -5.281939,4.82264 H 64.55953 Z m 0,-12.76852 h 7.899943 c 3.123234,0 5.05229,0.82674 5.05229,3.53661 0,2.618 -2.158706,3.67439 -4.86857,3.67439 H 64.55953 Z"
       id="text1"
       class="st5 st15"
       transform="scale(1.0198039,0.98058068)"
       aria-label="B" /><path
       style="font-weight:bold;font-size:11.239px;font-family:'Helvetica LT Std';-inkscape-font-specification:'Helvetica LT Std Bold';fill:#f9fbfc"
       d="m 59.270276,473.93222 h 1.57346 v -3.1132 c 0,-0.6631 0.22478,-1.42736 1.449831,-1.42736 0.146107,0 0.314692,0 0.44956,0.0225 v -1.59594 c -0.101151,-0.0112 -0.202302,-0.0225 -0.303453,-0.0225 -0.955315,0 -1.314963,0.58442 -1.640894,1.19133 h -0.02248 v -1.03399 h -1.506026 z m 9.002433,-4.40569 c 0,-1.47231 -1.539743,-1.7308 -2.382668,-1.7308 -1.225051,0 -2.495058,0.25849 -2.674882,2.09045 h 1.517265 c 0.04496,-0.34841 0.179824,-0.83169 0.966554,-0.83169 0.404604,0 1.033988,0.0337 1.033988,0.69682 0,0.33717 -0.303453,0.43832 -0.550711,0.47204 l -1.416114,0.21354 c -1.000271,0.14611 -1.742045,0.74178 -1.742045,1.91063 0,1.23629 0.921598,1.74205 1.820718,1.74205 1.067705,0 1.57346,-0.49452 1.933108,-0.86541 0.03372,0.33717 0.0562,0.42709 0.146107,0.70806 h 1.697089 v -0.23602 c -0.191063,-0.0674 -0.348409,-0.22478 -0.348409,-0.93284 z m -1.539743,2.25904 c 0,0.73054 -0.708057,1.1801 -1.404875,1.1801 -0.303453,0 -0.730535,-0.16859 -0.730535,-0.7193 0,-0.65186 0.483277,-0.79797 1.067705,-0.89912 0.651862,-0.10115 0.910359,-0.2023 1.067705,-0.32593 z m 2.989571,-3.8325 v 5.97915 h 1.57346 v -5.97915 z m 1.57346,-2.16912 h -1.57346 v 1.46107 h 1.57346 z m 3.337982,6.4849 h 2.978336 l 0.516994,1.66337 h 1.831957 l -2.843467,-8.0696 h -1.944347 l -2.877185,8.0696 h 1.775762 z m 1.483549,-4.58551 h 0.02248 l 1.000271,3.19187 H 75.08354 Z m 10.204992,2.11293 c 0,-1.31496 -0.910359,-2.00054 -2.079215,-2.00054 -1.135139,0 -1.584699,0.67434 -1.79824,1.03398 h -0.02248 v -0.87664 h -1.506026 v 5.97915 h 1.57346 v -3.42789 c 0,-0.91036 0.539472,-1.3824 1.23629,-1.3824 1.000271,0 1.022749,0.74177 1.022749,1.18009 v 3.6302 h 1.57346 z"
       id="text2"
       class="st7 st16"
       aria-label="raiAn" /></g></g></svg>
