<?xml version="1.0" encoding="UTF-8" standalone="no"?>
<!-- Generator: Adobe Illustrator 25.4.1, SVG Export Plug-In . SVG Version: 6.00 Build 0)  -->

<svg
   version="1.1"
   id="Layer_1"
   x="0px"
   y="0px"
   viewBox="0 0 170.4393 45.799998"
   xml:space="preserve"
   width="170.4393"
   height="45.799999"
   sodipodi:docname="horizontal.svg"
   inkscape:version="1.4-beta (62f545b, 2024-04-22)"
   xmlns:inkscape="http://www.inkscape.org/namespaces/inkscape"
   xmlns:sodipodi="http://sodipodi.sourceforge.net/DTD/sodipodi-0.dtd"
   xmlns:xlink="http://www.w3.org/1999/xlink"
   xmlns="http://www.w3.org/2000/svg"
   xmlns:svg="http://www.w3.org/2000/svg"><sodipodi:namedview
   id="namedview1"
   pagecolor="#505050"
   bordercolor="#eeeeee"
   borderopacity="1"
   inkscape:showpageshadow="0"
   inkscape:pageopacity="0"
   inkscape:pagecheckerboard="0"
   inkscape:deskcolor="#505050"
   inkscape:zoom="6.4891137"
   inkscape:cx="85.21965"
   inkscape:cy="22.884481"
   inkscape:window-width="1920"
   inkscape:window-height="1070"
   inkscape:window-x="0"
   inkscape:window-y="0"
   inkscape:window-maximized="1"
   inkscape:current-layer="Layer_1" /><defs
   id="defs82" />
<style
   type="text/css"
   id="style1">
	.st0{fill:#FFFFFF;}
	.st1{fill:#03B9E2;}
	.st2{fill:#9DD7DD;}
	.st3{fill:#7ECFE6;}
	.st4{fill:#5C7891;}
	.st5{font-family:'ArialMT';}
	.st6{font-size:46.1996px;}
	.st7{font-family:'Arial-BoldMT';}
	.st8{font-size:11.305px;}
	.st9{stroke:#000000;stroke-width:1.4446;stroke-miterlimit:10;}
	.st10{fill:#FFFFFF;stroke:#000000;stroke-width:1.0329;stroke-miterlimit:10;}
	.st11{fill:#FFFFFF;stroke:#221F1F;stroke-width:0.8386;stroke-miterlimit:10;}
	.st12{font-size:41.8731px;}
	.st13{font-size:10.2463px;}
	.st14{fill:#EC1E24;}
	.st15{font-size:45.9299px;}
	.st16{font-size:11.239px;}
</style>







<g
   id="layer15"
   transform="translate(-246.77678,-169.40473)"><g
     id="g238"
     transform="translate(-154.54683,124.90004)"><g
       id="g82"
       style="display:inline"
       transform="translate(1.176777,-4.4999898)">
	
	
	
	
	
	
	
	
	
	
	
	
	
	
	
	
	
	
	
	
	
	
	
	
	
	
	
	
	
	
	
	
	<g
   id="g8"
   style="display:inline"><path
     style="display:inline;fill:#9dd7dd;fill-opacity:1;stroke:#111111;stroke-width:1.5;stroke-linejoin:round;stroke-dasharray:none;stroke-opacity:1"
     d="m 51.15,166.45 -19.4,4.19764 10.7,4.20236 z"
     id="path1" /><path
     style="display:inline;fill:#03b9e2;fill-opacity:1;stroke:#111111;stroke-width:1.5;stroke-linejoin:round;stroke-dasharray:none;stroke-opacity:1"
     d="m 51.15,166.45 0.1,17.7 -8.8,-9.3 z"
     id="path2" /><path
     style="display:inline;fill:#5c7891;fill-opacity:1;stroke:#111111;stroke-width:1.5;stroke-linejoin:round;stroke-dasharray:none;stroke-opacity:1"
     d="m 51.25,184.15 -13.7,0.6 4.9,-9.9 z"
     id="path3" /><path
     style="display:inline;fill:#7ecfe6;fill-opacity:1;stroke:#111111;stroke-width:1.5;stroke-linejoin:round;stroke-dasharray:none;stroke-opacity:1"
     d="m 37.55,184.75 -5.8,-14.10236 10.7,4.20236 z"
     id="path4" /><path
     style="display:inline;fill:#5c7891;fill-opacity:1;stroke:#111111;stroke-width:1.5;stroke-linejoin:round;stroke-dasharray:none;stroke-opacity:1"
     d="m 37.55,184.75 4.3,9.79764 9.4,-10.39764 z"
     id="path5" /><path
     style="display:inline;fill:#7ecfe6;fill-opacity:1;stroke:#111111;stroke-width:1.5;stroke-linejoin:round;stroke-dasharray:none;stroke-opacity:1"
     d="m 37.55,184.75 -6.6,15.29764 10.9,-5.5 z"
     id="path6" /><path
     style="display:inline;fill:#9dd7dd;fill-opacity:1;stroke:#111111;stroke-width:1.5;stroke-linejoin:round;stroke-dasharray:none;stroke-opacity:1"
     d="m 51.65,204.55 -9.8,-10.00236 -10.9,5.5 z"
     id="path7" /><path
     style="display:inline;fill:#03b9e2;fill-opacity:1;stroke:#111111;stroke-width:1.5;stroke-linejoin:round;stroke-dasharray:none;stroke-opacity:1"
     d="m 51.65,204.55 -0.4,-20.4 -9.4,10.39764 z"
     id="path8" /></g><g
   id="g83"
   style="display:inline"><path
     class="st10"
     d="m 45.8,174.8 c 0,1.9 -1.4,3.4 -3.3,3.4 -1.9,0 -3.4,-1.4 -3.4,-3.3 0,-1.9 1.4,-3.4 3.3,-3.4 1.8,0 3.4,1.4 3.4,3.3 z"
     id="path72"
     style="fill:#f9fbfc;fill-opacity:1;stroke:#111111;stroke-width:1;stroke-dasharray:none;stroke-opacity:1" /><path
     class="st10"
     d="m 54.6,184.1 c 0,1.9 -1.4,3.4 -3.3,3.4 -1.9,0 -3.4,-1.4 -3.4,-3.3 0,-1.9 1.4,-3.4 3.3,-3.4 1.8,0 3.4,1.5 3.4,3.3 z"
     id="path73"
     style="fill:#f9fbfc;fill-opacity:1;stroke:#111111;stroke-width:1;stroke-dasharray:none;stroke-opacity:1" /><path
     class="st10"
     d="m 45.2,194.5 c 0,1.9 -1.4,3.4 -3.3,3.4 -1.9,0 -3.4,-1.4 -3.4,-3.3 0,-1.9 1.4,-3.4 3.3,-3.4 1.8,-0.1 3.3,1.4 3.4,3.3 z"
     id="path75"
     style="fill:#f9fbfc;fill-opacity:1;stroke:#111111;stroke-width:1;stroke-dasharray:none;stroke-opacity:1" /><path
     class="st10"
     d="m 35.1,170.6 c 0,1.9 -1.4,3.4 -3.3,3.4 -1.9,0 -3.4,-1.4 -3.4,-3.3 0,-1.9 1.4,-3.4 3.3,-3.4 1.8,-0.1 3.3,1.4 3.4,3.3 z"
     id="path78"
     style="fill:#f9fbfc;fill-opacity:1;stroke:#111111;stroke-width:1;stroke-dasharray:none;stroke-opacity:1" /><path
     class="st10"
     d="m 40.9,184.7 c 0,1.9 -1.4,3.4 -3.3,3.4 -1.9,0 -3.4,-1.4 -3.4,-3.3 0,-1.9 1.4,-3.4 3.3,-3.4 1.9,0 3.4,1.5 3.4,3.3 z"
     id="path79"
     style="fill:#f9fbfc;fill-opacity:1;stroke:#111111;stroke-width:1;stroke-dasharray:none;stroke-opacity:1" /><path
     class="st10"
     d="m 34.3,200 c 0,1.9 -1.4,3.4 -3.3,3.4 -1.9,0 -3.4,-1.4 -3.4,-3.3 0,-1.9 1.4,-3.4 3.3,-3.4 1.8,-0.1 3.3,1.4 3.4,3.3 z"
     id="path80"
     style="display:inline;fill:#f9fbfc;fill-opacity:1;stroke:#111111;stroke-width:1;stroke-dasharray:none;stroke-opacity:1" /><path
     class="st10"
     d="m 54.5,166.4 c 0,1.9 -1.4,3.4 -3.3,3.4 -1.9,0 -3.4,-1.4 -3.4,-3.3 0,-1.9 1.4,-3.4 3.3,-3.4 1.8,0 3.4,1.4 3.4,3.3 z"
     id="path81"
     style="fill:#f9fbfc;fill-opacity:1;stroke:#111111;stroke-width:1;stroke-dasharray:none;stroke-opacity:1" /><path
     class="st11"
     d="m 55,204.5 c 0,1.9 -1.4,3.4 -3.3,3.4 -1.9,0 -3.4,-1.4 -3.4,-3.3 0,-1.9 1.4,-3.4 3.3,-3.4 1.8,0 3.4,1.5 3.4,3.3 z"
     id="path82"
     style="fill:#f9fbfc;fill-opacity:1;stroke:#111111;stroke-width:1;stroke-dasharray:none;stroke-opacity:1" /></g>
</g></g></g><g
   id="layer9"
   transform="translate(-246.77678,-169.40473)"><use
     x="0"
     y="0"
     xlink:href="#g82"
     id="use228"
     transform="translate(218.5,11.30472)" /><text
     transform="scale(1.0198039,0.98058068)"
     class="st5 st15"
     id="text151"
     style="font-size:54.28px;font-family:ArialMT;display:none;fill:#111111;fill-opacity:1;stroke-width:764.012"
     x="268.07303"
     y="215.22961"><tspan
       style="font-style:normal;font-variant:normal;font-weight:bold;font-stretch:normal;font-size:54.28px;font-family:'Helvetica LT Std';-inkscape-font-specification:'Helvetica LT Std Bold';fill:#111111;fill-opacity:1;stroke-width:764.012"
       id="tspan151">B<tspan
   style="font-style:normal;font-variant:normal;font-weight:bold;font-stretch:normal;font-size:35.8267px;font-family:'Helvetica LT Std';-inkscape-font-specification:'Helvetica LT Std Bold';fill:#111111;fill-opacity:1"
   id="tspan149">rai</tspan>A<tspan
   style="font-style:normal;font-variant:normal;font-weight:bold;font-stretch:normal;font-size:35.8267px;font-family:'Helvetica LT Std';-inkscape-font-specification:'Helvetica LT Std Bold';fill:#111111;fill-opacity:1"
   id="tspan150">n</tspan></tspan></text><g
     id="text3"
     style="font-size:54.28px;font-family:ArialMT;fill:#111111;stroke-width:764.012"
     class="st5 st15"
     transform="scale(1.0198039,0.98058068)"
     aria-label="BraiAn"><path
       style="font-weight:bold;font-family:'Helvetica LT Std';-inkscape-font-specification:'Helvetica LT Std Bold'"
       d="m 272.19831,215.22961 h 16.50112 c 7.97916,0 10.09608,-1.357 12.32156,-3.5282 2.06264,-2.00836 3.36536,-4.93948 3.36536,-8.03344 0,-3.85388 -1.24844,-7.65348 -6.02508,-9.44472 1.6284,-0.8142 4.77664,-2.38832 4.77664,-7.97916 0,-4.01672 -2.4426,-9.98751 -11.99588,-9.98751 h -18.94372 z m 7.81632,-17.15248 h 10.36748 c 2.93112,0 5.86224,1.30272 5.86224,4.72236 0,3.96244 -2.27976,5.6994 -6.2422,5.6994 h -9.98752 z m 0,-15.08984 h 9.33616 c 3.69104,0 5.9708,0.97704 5.9708,4.17956 0,3.09396 -2.55116,4.3424 -5.75368,4.3424 h -9.55328 z"
       id="path9" /><path
       style="font-weight:bold;font-size:35.8267px;font-family:'Helvetica LT Std';-inkscape-font-specification:'Helvetica LT Std Bold'"
       d="m 309.556,215.22961 h 5.01574 v -9.92399 c 0,-2.11378 0.71653,-4.54999 4.62164,-4.54999 0.46575,0 1.00315,0 1.43307,0.0717 v -5.08739 c -0.32244,-0.0358 -0.64488,-0.0717 -0.96732,-0.0717 -3.04527,0 -4.19172,1.86299 -5.2307,3.79763 h -0.0716 v -3.29606 H 309.556 Z m 28.69717,-14.04406 c 0,-4.6933 -4.90826,-5.51731 -7.59526,-5.51731 -3.90511,0 -7.95353,0.82401 -8.52676,6.66376 h 4.83661 c 0.1433,-1.11062 0.57322,-2.65117 3.08109,-2.65117 1.28976,0 3.29606,0.10748 3.29606,2.22125 0,1.0748 -0.96732,1.39724 -1.75551,1.50472 l -4.51416,0.68071 c -3.18858,0.46575 -5.55314,2.36456 -5.55314,6.09054 0,3.94094 2.93779,5.55314 5.80392,5.55314 3.40354,0 5.01574,-1.57638 6.1622,-2.75866 0.10748,1.0748 0.17913,1.36142 0.46574,2.25708 h 5.40983 v -0.75236 c -0.60905,-0.21496 -1.11062,-0.71653 -1.11062,-2.97361 z m -4.90826,7.20116 c 0,2.32874 -2.25708,3.76181 -4.47834,3.76181 -0.96732,0 -2.32873,-0.5374 -2.32873,-2.29291 0,-2.07795 1.54054,-2.5437 3.40353,-2.86614 2.07795,-0.32244 2.90196,-0.64488 3.40354,-1.03897 z m 9.5299,-12.2169 v 19.0598 h 5.01573 v -19.0598 z m 5.01573,-6.91455 h -5.01573 v 4.65747 h 5.01573 z"
       id="path10" /><path
       style="font-weight:bold;font-family:'Helvetica LT Std';-inkscape-font-specification:'Helvetica LT Std Bold'"
       d="m 362.73842,207.19617 h 14.3842 l 2.49688,8.03344 h 8.84764 L 374.7343,176.25658 h -9.39044 l -13.89568,38.97303 h 8.57624 z m 7.16496,-22.14624 h 0.10856 l 4.83092,15.41552 h -9.93324 z"
       id="path11" /><path
       style="font-weight:bold;font-size:35.8267px;font-family:'Helvetica LT Std';-inkscape-font-specification:'Helvetica LT Std Bold'"
       d="m 409.11402,202.04539 c 0,-4.19172 -2.90196,-6.37715 -6.62794,-6.37715 -3.6185,0 -5.05156,2.1496 -5.73227,3.29605 h -0.0716 v -2.79448 h -4.80078 v 19.0598 h 5.01574 v -10.92714 c 0,-2.90196 1.71968,-4.40668 3.94093,-4.40668 3.18858,0 3.26023,2.36456 3.26023,3.7618 v 11.57202 h 5.01574 z"
       id="path12" /></g></g></svg>
