<?xml version="1.0" encoding="UTF-8" standalone="no"?>
<!-- Generator: Adobe Illustrator 25.4.1, SVG Export Plug-In . SVG Version: 6.00 Build 0)  -->

<svg
   version="1.1"
   id="Layer_1"
   x="0px"
   y="0px"
   viewBox="0 0 144.83425 45.799998"
   xml:space="preserve"
   width="144.83424"
   height="45.799999"
   sodipodi:docname="horizontal_condensed.svg"
   inkscape:version="1.4-beta (62f545b, 2024-04-22)"
   xmlns:inkscape="http://www.inkscape.org/namespaces/inkscape"
   xmlns:sodipodi="http://sodipodi.sourceforge.net/DTD/sodipodi-0.dtd"
   xmlns:xlink="http://www.w3.org/1999/xlink"
   xmlns="http://www.w3.org/2000/svg"
   xmlns:svg="http://www.w3.org/2000/svg"><sodipodi:namedview
   id="namedview1"
   pagecolor="#505050"
   bordercolor="#eeeeee"
   borderopacity="1"
   inkscape:showpageshadow="0"
   inkscape:pageopacity="0"
   inkscape:pagecheckerboard="0"
   inkscape:deskcolor="#505050"
   inkscape:zoom="7.6363156"
   inkscape:cx="72.417122"
   inkscape:cy="22.851334"
   inkscape:window-width="1920"
   inkscape:window-height="1070"
   inkscape:window-x="0"
   inkscape:window-y="0"
   inkscape:window-maximized="1"
   inkscape:current-layer="Layer_1" /><defs
   id="defs82" />
<style
   type="text/css"
   id="style1">
	.st0{fill:#FFFFFF;}
	.st1{fill:#03B9E2;}
	.st2{fill:#9DD7DD;}
	.st3{fill:#7ECFE6;}
	.st4{fill:#5C7891;}
	.st5{font-family:'ArialMT';}
	.st6{font-size:46.1996px;}
	.st7{font-family:'Arial-BoldMT';}
	.st8{font-size:11.305px;}
	.st9{stroke:#000000;stroke-width:1.4446;stroke-miterlimit:10;}
	.st10{fill:#FFFFFF;stroke:#000000;stroke-width:1.0329;stroke-miterlimit:10;}
	.st11{fill:#FFFFFF;stroke:#221F1F;stroke-width:0.8386;stroke-miterlimit:10;}
	.st12{font-size:41.8731px;}
	.st13{font-size:10.2463px;}
	.st14{fill:#EC1E24;}
	.st15{font-size:45.9299px;}
	.st16{font-size:11.239px;}
</style>







<g
   id="layer15"
   transform="translate(-246.77678,-83.40473)"><g
     id="g238"
     transform="translate(-154.54683,124.90004)"><g
       id="g82"
       style="display:inline"
       transform="translate(1.176777,-4.4999898)">
	
	
	
	
	
	
	
	
	
	
	
	
	
	
	
	
	
	
	
	
	
	
	
	
	
	
	
	
	
	
	
	
	<g
   id="g8"
   style="display:inline"><path
     style="display:inline;fill:#9dd7dd;fill-opacity:1;stroke:#111111;stroke-width:1.5;stroke-linejoin:round;stroke-dasharray:none;stroke-opacity:1"
     d="m 51.15,166.45 -19.4,4.19764 10.7,4.20236 z"
     id="path1" /><path
     style="display:inline;fill:#03b9e2;fill-opacity:1;stroke:#111111;stroke-width:1.5;stroke-linejoin:round;stroke-dasharray:none;stroke-opacity:1"
     d="m 51.15,166.45 0.1,17.7 -8.8,-9.3 z"
     id="path2" /><path
     style="display:inline;fill:#5c7891;fill-opacity:1;stroke:#111111;stroke-width:1.5;stroke-linejoin:round;stroke-dasharray:none;stroke-opacity:1"
     d="m 51.25,184.15 -13.7,0.6 4.9,-9.9 z"
     id="path3" /><path
     style="display:inline;fill:#7ecfe6;fill-opacity:1;stroke:#111111;stroke-width:1.5;stroke-linejoin:round;stroke-dasharray:none;stroke-opacity:1"
     d="m 37.55,184.75 -5.8,-14.10236 10.7,4.20236 z"
     id="path4" /><path
     style="display:inline;fill:#5c7891;fill-opacity:1;stroke:#111111;stroke-width:1.5;stroke-linejoin:round;stroke-dasharray:none;stroke-opacity:1"
     d="m 37.55,184.75 4.3,9.79764 9.4,-10.39764 z"
     id="path5" /><path
     style="display:inline;fill:#7ecfe6;fill-opacity:1;stroke:#111111;stroke-width:1.5;stroke-linejoin:round;stroke-dasharray:none;stroke-opacity:1"
     d="m 37.55,184.75 -6.6,15.29764 10.9,-5.5 z"
     id="path6" /><path
     style="display:inline;fill:#9dd7dd;fill-opacity:1;stroke:#111111;stroke-width:1.5;stroke-linejoin:round;stroke-dasharray:none;stroke-opacity:1"
     d="m 51.65,204.55 -9.8,-10.00236 -10.9,5.5 z"
     id="path7" /><path
     style="display:inline;fill:#03b9e2;fill-opacity:1;stroke:#111111;stroke-width:1.5;stroke-linejoin:round;stroke-dasharray:none;stroke-opacity:1"
     d="m 51.65,204.55 -0.4,-20.4 -9.4,10.39764 z"
     id="path8" /></g><g
   id="g83"
   style="display:inline"><path
     class="st10"
     d="m 45.8,174.8 c 0,1.9 -1.4,3.4 -3.3,3.4 -1.9,0 -3.4,-1.4 -3.4,-3.3 0,-1.9 1.4,-3.4 3.3,-3.4 1.8,0 3.4,1.4 3.4,3.3 z"
     id="path72"
     style="fill:#f9fbfc;fill-opacity:1;stroke:#111111;stroke-width:1;stroke-dasharray:none;stroke-opacity:1" /><path
     class="st10"
     d="m 54.6,184.1 c 0,1.9 -1.4,3.4 -3.3,3.4 -1.9,0 -3.4,-1.4 -3.4,-3.3 0,-1.9 1.4,-3.4 3.3,-3.4 1.8,0 3.4,1.5 3.4,3.3 z"
     id="path73"
     style="fill:#f9fbfc;fill-opacity:1;stroke:#111111;stroke-width:1;stroke-dasharray:none;stroke-opacity:1" /><path
     class="st10"
     d="m 45.2,194.5 c 0,1.9 -1.4,3.4 -3.3,3.4 -1.9,0 -3.4,-1.4 -3.4,-3.3 0,-1.9 1.4,-3.4 3.3,-3.4 1.8,-0.1 3.3,1.4 3.4,3.3 z"
     id="path75"
     style="fill:#f9fbfc;fill-opacity:1;stroke:#111111;stroke-width:1;stroke-dasharray:none;stroke-opacity:1" /><path
     class="st10"
     d="m 35.1,170.6 c 0,1.9 -1.4,3.4 -3.3,3.4 -1.9,0 -3.4,-1.4 -3.4,-3.3 0,-1.9 1.4,-3.4 3.3,-3.4 1.8,-0.1 3.3,1.4 3.4,3.3 z"
     id="path78"
     style="fill:#f9fbfc;fill-opacity:1;stroke:#111111;stroke-width:1;stroke-dasharray:none;stroke-opacity:1" /><path
     class="st10"
     d="m 40.9,184.7 c 0,1.9 -1.4,3.4 -3.3,3.4 -1.9,0 -3.4,-1.4 -3.4,-3.3 0,-1.9 1.4,-3.4 3.3,-3.4 1.9,0 3.4,1.5 3.4,3.3 z"
     id="path79"
     style="fill:#f9fbfc;fill-opacity:1;stroke:#111111;stroke-width:1;stroke-dasharray:none;stroke-opacity:1" /><path
     class="st10"
     d="m 34.3,200 c 0,1.9 -1.4,3.4 -3.3,3.4 -1.9,0 -3.4,-1.4 -3.4,-3.3 0,-1.9 1.4,-3.4 3.3,-3.4 1.8,-0.1 3.3,1.4 3.4,3.3 z"
     id="path80"
     style="display:inline;fill:#f9fbfc;fill-opacity:1;stroke:#111111;stroke-width:1;stroke-dasharray:none;stroke-opacity:1" /><path
     class="st10"
     d="m 54.5,166.4 c 0,1.9 -1.4,3.4 -3.3,3.4 -1.9,0 -3.4,-1.4 -3.4,-3.3 0,-1.9 1.4,-3.4 3.3,-3.4 1.8,0 3.4,1.4 3.4,3.3 z"
     id="path81"
     style="fill:#f9fbfc;fill-opacity:1;stroke:#111111;stroke-width:1;stroke-dasharray:none;stroke-opacity:1" /><path
     class="st11"
     d="m 55,204.5 c 0,1.9 -1.4,3.4 -3.3,3.4 -1.9,0 -3.4,-1.4 -3.4,-3.3 0,-1.9 1.4,-3.4 3.3,-3.4 1.8,0 3.4,1.5 3.4,3.3 z"
     id="path82"
     style="fill:#f9fbfc;fill-opacity:1;stroke:#111111;stroke-width:1;stroke-dasharray:none;stroke-opacity:1" /></g>
</g></g></g><g
   id="layer16"
   transform="translate(-246.77678,-83.40473)"><use
     x="0"
     y="0"
     xlink:href="#g82"
     id="use238"
     transform="translate(218.5,-74.69528)" /><text
     transform="scale(1.0198039,0.98058068)"
     class="st5 st15"
     id="text240"
     style="font-size:54.28px;font-family:ArialMT;display:none;fill:#111111;fill-opacity:1;stroke-width:764.012"
     x="268.07303"
     y="127.52631"><tspan
       style="font-style:normal;font-variant:normal;font-weight:bold;font-stretch:condensed;font-size:54.28px;font-family:'Helvetica LT Std';-inkscape-font-specification:'Helvetica LT Std Bold Condensed';fill:#111111;fill-opacity:1;stroke-width:764.012"
       id="tspan240">B<tspan
   style="font-style:normal;font-variant:normal;font-weight:bold;font-stretch:condensed;font-size:35.8267px;font-family:'Helvetica LT Std';-inkscape-font-specification:'Helvetica LT Std Bold Condensed';fill:#111111;fill-opacity:1"
   id="tspan238">rai</tspan>A<tspan
   style="font-style:normal;font-variant:normal;font-weight:bold;font-stretch:condensed;font-size:35.8267px;font-family:'Helvetica LT Std';-inkscape-font-specification:'Helvetica LT Std Bold Condensed';fill:#111111;fill-opacity:1"
   id="tspan239">n</tspan></tspan></text><g
     id="text3"
     style="font-size:54.28px;font-family:ArialMT;fill:#111111;stroke-width:764.012"
     class="st5 st15"
     transform="scale(1.0198039,0.98058068)"
     aria-label="BraiAn"><path
       style="font-weight:bold;font-stretch:condensed;font-family:'Helvetica LT Std';-inkscape-font-specification:'Helvetica LT Std Bold Condensed'"
       d="m 279.20043,121.55551 v -12.32156 h 2.93112 c 4.72236,0 5.59084,1.84552 5.59084,6.2422 0,2.06264 -0.2714,4.72236 -2.33404,5.64512 -1.357,0.59708 -2.9854,0.43424 -4.55952,0.43424 z m 0,-18.29236 V 92.787115 h 3.5282 c 3.47392,0.10856 4.12528,1.6284 4.12528,4.668079 0,1.95408 -0.10856,3.365356 -0.8142,4.396676 -1.19416,1.51984 -3.58248,1.41128 -5.428,1.41128 z m 5.80796,24.26316 c 5.428,0 8.35912,-2.1712 9.98752,-7.3278 0.43424,-1.6284 0.5428,-3.31108 0.5428,-4.99376 0,-5.26516 -1.6284,-8.84764 -5.91652,-9.44472 v -0.10856 c 4.12528,-1.51984 4.8852,-4.99376 4.8852,-8.521956 0,-2.768279 -0.2714,-5.102319 -2.00836,-7.327799 -2.1712,-2.76828 -5.37372,-2.9854 -8.63052,-2.9854 h -12.26728 v 40.709995 z"
       id="path9" /><path
       style="font-weight:bold;font-stretch:condensed;font-size:35.8267px;font-family:'Helvetica LT Std';-inkscape-font-specification:'Helvetica LT Std Bold Condensed'"
       d="m 304.88063,107.32006 h -4.47833 v 20.20625 h 4.65747 v -11.6795 c 0.0716,-2.97362 2.04212,-3.6185 4.62164,-3.36771 v -5.51731 c -0.68071,0.0358 -1.57637,-0.0358 -2.90196,1.0748 -0.68071,0.57323 -1.25394,1.39724 -1.82716,2.86614 h -0.0717 z m 21.06604,20.20625 c -0.25079,-0.93149 -0.39409,-1.86298 -0.39409,-2.83031 v -11.93029 c 0.0717,-2.65117 -0.32244,-5.98305 -6.66377,-5.98305 -5.83975,0 -7.09369,2.687 -7.05786,6.52045 h 4.44251 c -0.0358,-1.82716 0.32244,-2.93778 2.43622,-2.93778 1.25393,0 1.97046,0.1433 2.18543,1.03897 0.39409,1.64803 -0.32245,2.5437 -2.29291,3.36771 -3.65433,1.50472 -6.91456,2.61535 -6.91456,7.23699 0,4.1559 1.64803,6.05471 5.40984,6.05471 0.78818,0 1.54054,-0.25078 2.22125,-0.6807 0.71653,-0.42992 1.32559,-1.11063 1.86299,-1.93464 h 0.0717 c -0.0717,0.71653 -0.0358,1.43306 0.28662,2.07794 z m -5.05156,-8.4551 c -0.10748,1.93464 0.39409,5.40983 -2.36457,5.40983 -1.71968,0 -2.18543,-1.03897 -2.18543,-2.57952 0,-0.85984 0.10748,-1.86299 0.78819,-2.43621 1.21811,-1.00315 2.61535,-1.79134 3.76181,-2.57953 z m 14.50974,8.4551 v -20.20625 h -4.65747 v 20.20625 z m 0,-22.64247 v -4.22755 h -4.65747 v 4.22755 z"
       id="path10" /><path
       style="font-weight:bold;font-stretch:condensed;font-family:'Helvetica LT Std';-inkscape-font-specification:'Helvetica LT Std Bold Condensed'"
       d="m 346.68654,127.52631 2.00836,-10.3132 h 8.90192 l 2.00836,10.3132 h 8.142 l -9.2276,-40.709995 h -10.25892 l -9.71612,40.709995 z m 5.48228,-27.845636 c 0.37996,-1.8998 0.5428,-3.74532 0.75992,-5.645119 0.0543,-0.92276 0.16284,-1.84552 0.2714,-2.714 h 0.10856 c 0.10856,0.86848 0.21712,1.79124 0.2714,2.714 0.21712,1.899799 0.37996,3.745319 0.75992,5.645119 l 2.06264,11.561636 h -6.5136 z"
       id="path11" /><path
       style="font-weight:bold;font-stretch:condensed;font-size:35.8267px;font-family:'Helvetica LT Std';-inkscape-font-specification:'Helvetica LT Std Bold Condensed'"
       d="m 375.07859,107.32006 h -4.65747 v 20.20625 h 4.65747 v -13.07674 c -0.0717,-2.1496 0.5374,-3.79763 2.29291,-3.72598 1.7555,0.0717 1.97046,1.36142 1.97046,3.33189 v 13.47083 h 4.65747 V 111.9417 c 0.14331,-3.6185 -2.00629,-5.15904 -4.65747,-5.15904 -1.0748,0 -3.15275,0.28661 -4.19172,2.61534 h -0.0716 z"
       id="path12" /></g></g></svg>
