<?xml version="1.0" encoding="UTF-8" standalone="no"?>
<!-- Generator: Adobe Illustrator 25.4.1, SVG Export Plug-In . SVG Version: 6.00 Build 0)  -->

<svg
   version="1.1"
   id="Layer_1"
   x="0px"
   y="0px"
   viewBox="0 0 28.400391 45.800776"
   xml:space="preserve"
   width="28.400391"
   height="45.800777"
   xmlns="http://www.w3.org/2000/svg"
   xmlns:svg="http://www.w3.org/2000/svg"><defs
   id="defs82" />
<style
   type="text/css"
   id="style1">
	.st0{fill:#FFFFFF;}
	.st1{fill:#03B9E2;}
	.st2{fill:#9DD7DD;}
	.st3{fill:#7ECFE6;}
	.st4{fill:#5C7891;}
	.st5{font-family:'ArialMT';}
	.st6{font-size:46.1996px;}
	.st7{font-family:'Arial-BoldMT';}
	.st8{font-size:11.305px;}
	.st9{stroke:#000000;stroke-width:1.4446;stroke-miterlimit:10;}
	.st10{fill:#FFFFFF;stroke:#000000;stroke-width:1.0329;stroke-miterlimit:10;}
	.st11{fill:#FFFFFF;stroke:#221F1F;stroke-width:0.8386;stroke-miterlimit:10;}
	.st12{font-size:41.8731px;}
	.st13{font-size:10.2463px;}
	.st14{fill:#EC1E24;}
	.st15{font-size:45.9299px;}
	.st16{font-size:11.239px;}
</style>







<g
   id="layer15"
   transform="translate(-28.730442,-12.050769)"><g
     id="g82"
     style="display:inline"
     transform="translate(1.6299473,-150.54946)">
	
	
	
	
	
	
	
	
	
	
	
	
	
	
	
	
	
	
	
	
	
	
	
	
	
	
	
	
	
	
	
	
	<g
   id="g8"
   style="display:inline"><path
     style="display:inline;fill:#9dd7dd;fill-opacity:1;stroke:#111111;stroke-width:1.5;stroke-linejoin:round;stroke-dasharray:none;stroke-opacity:1"
     d="m 51.15,166.45 -19.4,4.19764 10.7,4.20236 z"
     id="path1" /><path
     style="display:inline;fill:#03b9e2;fill-opacity:1;stroke:#111111;stroke-width:1.5;stroke-linejoin:round;stroke-dasharray:none;stroke-opacity:1"
     d="m 51.15,166.45 0.1,17.7 -8.8,-9.3 z"
     id="path2" /><path
     style="display:inline;fill:#5c7891;fill-opacity:1;stroke:#111111;stroke-width:1.5;stroke-linejoin:round;stroke-dasharray:none;stroke-opacity:1"
     d="m 51.25,184.15 -13.7,0.6 4.9,-9.9 z"
     id="path3" /><path
     style="display:inline;fill:#7ecfe6;fill-opacity:1;stroke:#111111;stroke-width:1.5;stroke-linejoin:round;stroke-dasharray:none;stroke-opacity:1"
     d="m 37.55,184.75 -5.8,-14.10236 10.7,4.20236 z"
     id="path4" /><path
     style="display:inline;fill:#5c7891;fill-opacity:1;stroke:#111111;stroke-width:1.5;stroke-linejoin:round;stroke-dasharray:none;stroke-opacity:1"
     d="m 37.55,184.75 4.3,9.79764 9.4,-10.39764 z"
     id="path5" /><path
     style="display:inline;fill:#7ecfe6;fill-opacity:1;stroke:#111111;stroke-width:1.5;stroke-linejoin:round;stroke-dasharray:none;stroke-opacity:1"
     d="m 37.55,184.75 -6.6,15.29764 10.9,-5.5 z"
     id="path6" /><path
     style="display:inline;fill:#9dd7dd;fill-opacity:1;stroke:#111111;stroke-width:1.5;stroke-linejoin:round;stroke-dasharray:none;stroke-opacity:1"
     d="m 51.65,204.55 -9.8,-10.00236 -10.9,5.5 z"
     id="path7" /><path
     style="display:inline;fill:#03b9e2;fill-opacity:1;stroke:#111111;stroke-width:1.5;stroke-linejoin:round;stroke-dasharray:none;stroke-opacity:1"
     d="m 51.65,204.55 -0.4,-20.4 -9.4,10.39764 z"
     id="path8" /></g><g
   id="g83"
   style="display:inline"><path
     class="st10"
     d="m 45.8,174.8 c 0,1.9 -1.4,3.4 -3.3,3.4 -1.9,0 -3.4,-1.4 -3.4,-3.3 0,-1.9 1.4,-3.4 3.3,-3.4 1.8,0 3.4,1.4 3.4,3.3 z"
     id="path72"
     style="fill:#f9fbfc;fill-opacity:1;stroke:#111111;stroke-width:1;stroke-dasharray:none;stroke-opacity:1" /><path
     class="st10"
     d="m 54.6,184.1 c 0,1.9 -1.4,3.4 -3.3,3.4 -1.9,0 -3.4,-1.4 -3.4,-3.3 0,-1.9 1.4,-3.4 3.3,-3.4 1.8,0 3.4,1.5 3.4,3.3 z"
     id="path73"
     style="fill:#f9fbfc;fill-opacity:1;stroke:#111111;stroke-width:1;stroke-dasharray:none;stroke-opacity:1" /><path
     class="st10"
     d="m 45.2,194.5 c 0,1.9 -1.4,3.4 -3.3,3.4 -1.9,0 -3.4,-1.4 -3.4,-3.3 0,-1.9 1.4,-3.4 3.3,-3.4 1.8,-0.1 3.3,1.4 3.4,3.3 z"
     id="path75"
     style="fill:#f9fbfc;fill-opacity:1;stroke:#111111;stroke-width:1;stroke-dasharray:none;stroke-opacity:1" /><path
     class="st10"
     d="m 35.1,170.6 c 0,1.9 -1.4,3.4 -3.3,3.4 -1.9,0 -3.4,-1.4 -3.4,-3.3 0,-1.9 1.4,-3.4 3.3,-3.4 1.8,-0.1 3.3,1.4 3.4,3.3 z"
     id="path78"
     style="fill:#f9fbfc;fill-opacity:1;stroke:#111111;stroke-width:1;stroke-dasharray:none;stroke-opacity:1" /><path
     class="st10"
     d="m 40.9,184.7 c 0,1.9 -1.4,3.4 -3.3,3.4 -1.9,0 -3.4,-1.4 -3.4,-3.3 0,-1.9 1.4,-3.4 3.3,-3.4 1.9,0 3.4,1.5 3.4,3.3 z"
     id="path79"
     style="fill:#f9fbfc;fill-opacity:1;stroke:#111111;stroke-width:1;stroke-dasharray:none;stroke-opacity:1" /><path
     class="st10"
     d="m 34.3,200 c 0,1.9 -1.4,3.4 -3.3,3.4 -1.9,0 -3.4,-1.4 -3.4,-3.3 0,-1.9 1.4,-3.4 3.3,-3.4 1.8,-0.1 3.3,1.4 3.4,3.3 z"
     id="path80"
     style="display:inline;fill:#f9fbfc;fill-opacity:1;stroke:#111111;stroke-width:1;stroke-dasharray:none;stroke-opacity:1" /><path
     class="st10"
     d="m 54.5,166.4 c 0,1.9 -1.4,3.4 -3.3,3.4 -1.9,0 -3.4,-1.4 -3.4,-3.3 0,-1.9 1.4,-3.4 3.3,-3.4 1.8,0 3.4,1.4 3.4,3.3 z"
     id="path81"
     style="fill:#f9fbfc;fill-opacity:1;stroke:#111111;stroke-width:1;stroke-dasharray:none;stroke-opacity:1" /><path
     class="st11"
     d="m 55,204.5 c 0,1.9 -1.4,3.4 -3.3,3.4 -1.9,0 -3.4,-1.4 -3.4,-3.3 0,-1.9 1.4,-3.4 3.3,-3.4 1.8,0 3.4,1.5 3.4,3.3 z"
     id="path82"
     style="fill:#f9fbfc;fill-opacity:1;stroke:#111111;stroke-width:1;stroke-dasharray:none;stroke-opacity:1" /></g>
</g></g></svg>
