<?xml version="1.0" encoding="UTF-8" standalone="no"?>
<!-- Generator: Adobe Illustrator 25.4.1, SVG Export Plug-In . SVG Version: 6.00 Build 0)  -->

<svg
   version="1.1"
   id="Layer_1"
   x="0px"
   y="0px"
   viewBox="0 0 56.184114 55.411158"
   xml:space="preserve"
   width="56.184113"
   height="55.41116"
   sodipodi:docname="favicon.svg"
   inkscape:version="1.4-beta (62f545b, 2024-04-22)"
   xmlns:inkscape="http://www.inkscape.org/namespaces/inkscape"
   xmlns:sodipodi="http://sodipodi.sourceforge.net/DTD/sodipodi-0.dtd"
   xmlns:xlink="http://www.w3.org/1999/xlink"
   xmlns="http://www.w3.org/2000/svg"
   xmlns:svg="http://www.w3.org/2000/svg"><sodipodi:namedview
   id="namedview1"
   pagecolor="#505050"
   bordercolor="#eeeeee"
   borderopacity="1"
   inkscape:showpageshadow="0"
   inkscape:pageopacity="0"
   inkscape:pagecheckerboard="0"
   inkscape:deskcolor="#505050"
   inkscape:zoom="15.321823"
   inkscape:cx="28.064545"
   inkscape:cy="27.70558"
   inkscape:window-width="1920"
   inkscape:window-height="1070"
   inkscape:window-x="0"
   inkscape:window-y="0"
   inkscape:window-maximized="1"
   inkscape:current-layer="Layer_1" /><defs
   id="defs82" />
<style
   type="text/css"
   id="style1">
	.st0{fill:#FFFFFF;}
	.st1{fill:#03B9E2;}
	.st2{fill:#9DD7DD;}
	.st3{fill:#7ECFE6;}
	.st4{fill:#5C7891;}
	.st5{font-family:'ArialMT';}
	.st6{font-size:46.1996px;}
	.st7{font-family:'Arial-BoldMT';}
	.st8{font-size:11.305px;}
	.st9{stroke:#000000;stroke-width:1.4446;stroke-miterlimit:10;}
	.st10{fill:#FFFFFF;stroke:#000000;stroke-width:1.0329;stroke-miterlimit:10;}
	.st11{fill:#FFFFFF;stroke:#221F1F;stroke-width:0.8386;stroke-miterlimit:10;}
	.st12{font-size:41.8731px;}
	.st13{font-size:10.2463px;}
	.st14{fill:#EC1E24;}
	.st15{font-size:45.9299px;}
	.st16{font-size:11.239px;}
	.st15 {fill:#111111;}
	.st10 {fill:#f9fbfc;stroke:#111111;}
  @media (prefers-color-scheme: dark) {
    .st15 {fill:#f9fbfc;}
    .st10 {stroke:#f9fbfc;}
  }
</style>







<g
   id="layer15"
   transform="translate(-145.85475,-76.894424)"><g
     id="g82"
     style="display:inline"
     transform="translate(-153.37005,120.40005)">
	
	
	
	
	
	
	
	
	
	
	
	
	
	
	
	
	
	
	
	
	
	
	
	
	
	
	
	
	
	
	
	
	<g
   id="g8"
   style="display:inline"><path
     style="display:inline;fill:#9dd7dd;fill-opacity:1;stroke:#111111;stroke-width:1.5;stroke-linejoin:round;stroke-dasharray:none;stroke-opacity:1"
     d="m 51.15,166.45 -18.86967,5.2583 6.090704,11.54427 z"
     id="path1" /><path
     style="display:inline;fill:#03b9e2;fill-opacity:1;stroke:#111111;stroke-width:1.5;stroke-linejoin:round;stroke-dasharray:none;stroke-opacity:1"
     d="M 51.15,166.45 51.5,203.9 38.371034,183.25257 Z"
     id="path2" /><path
     style="display:inline;fill:#5c7891;fill-opacity:1;stroke:#111111;stroke-width:1.5;stroke-linejoin:round;stroke-dasharray:none;stroke-opacity:1"
     d="m 51.5,203.9 -20.598733,-5.40444 7.469767,-15.24299 z"
     id="path3" /><path
     style="display:none;fill:#7ecfe6;fill-opacity:1;stroke:#111111;stroke-width:1.5;stroke-linejoin:round;stroke-dasharray:none;stroke-opacity:1"
     d="M 31.338767,196.93306 31.75,170.64764 l 6.621034,12.60493 z"
     id="path4" /></g><g
   id="g83"
   style="display:inline"><path
     class="st10"
     d="m 42.721683,183.18763 c 0,2.46754 -1.818181,4.41559 -4.285714,4.41559 -2.467532,0 -4.415584,-1.81818 -4.415584,-4.28571 0,-2.46754 1.818181,-4.41559 4.285714,-4.41559 2.337662,0 4.415584,1.81818 4.415584,4.28571 z"
     id="path72"
     style="fill-opacity:1;stroke-width:1.2987;stroke-dasharray:none;stroke-opacity:1" /><path
     class="st10"
     d="m 55.850649,203.83506 c 0,2.46754 -1.818181,4.41559 -4.285714,4.41559 -2.467532,0 -4.415584,-1.81818 -4.415584,-4.28571 0,-2.46754 1.818181,-4.41559 4.285714,-4.41559 2.337662,0 4.415584,1.94805 4.415584,4.28571 z"
     id="path73"
     style="fill-opacity:1;stroke-width:1.2987;stroke-dasharray:none;stroke-opacity:1" /><path
     class="st10"
     d="m 36.631179,171.64647 c 0,2.46591 -1.818265,4.41267 -4.285911,4.41267 -2.467645,0 -4.415787,-1.81698 -4.415787,-4.28288 0,-2.46591 1.818265,-4.41268 4.285911,-4.41268 2.337769,-0.12978 4.285911,1.81699 4.415787,4.28289 z"
     id="path78"
     style="fill-opacity:1;stroke-width:1.2983;stroke-dasharray:none;stroke-opacity:1" /><path
     class="st10"
     d="m 35.251916,198.43062 c 0,2.46754 -1.818181,4.41559 -4.285714,4.41559 -2.467532,0 -4.415584,-1.81818 -4.415584,-4.28571 0,-2.46754 1.818181,-4.41559 4.285714,-4.41559 2.467532,0 4.415584,1.94805 4.415584,4.28571 z"
     id="path79"
     style="fill-opacity:1;stroke-width:1.2987;stroke-dasharray:none;stroke-opacity:1" /><path
     class="st10"
     d="m 55.500649,166.38506 c 0,2.46754 -1.818181,4.41559 -4.285714,4.41559 -2.467532,0 -4.415584,-1.81818 -4.415584,-4.28571 0,-2.46754 1.818181,-4.41559 4.285714,-4.41559 2.337662,0 4.415584,1.81818 4.415584,4.28571 z"
     id="path81"
     style="fill-opacity:1;stroke-width:1.2987;stroke-dasharray:none;stroke-opacity:1" /></g>
</g></g><g
   id="layer17"
   transform="translate(-145.85475,-76.894424)"><rect
     style="fill:none;stroke:none;stroke-width:0.804136;stroke-linejoin:round;stroke-dasharray:none;stroke-opacity:1"
     id="rect240"
     width="55.41116"
     height="55.41116"
     x="146.6277"
     y="76.894424" /><g
     id="g241"
     transform="translate(0.22019944,-1.3999941)"><use
       x="0"
       y="0"
       xlink:href="#g82"
       id="use240"
       transform="translate(273.10333,-199.90005)" /><text
       transform="scale(1.0198039,0.98058068)"
       class="st5 st15"
       id="text241"
       style="font-size:54.28px;display:none;fill-opacity:1;stroke-width:764.012"
       x="170.0163"
       y="127.52631"><tspan
         style="font-style:normal;font-variant:normal;font-weight:bold;font-stretch:condensed;font-size:54.28px;font-family:'Helvetica LT Std';-inkscape-font-specification:'Helvetica LT Std Bold Condensed';fill-opacity:1;stroke-width:764.012"
         id="tspan241">B</tspan></text><path
       style="font-weight:bold;font-stretch:condensed;font-size:54.28px;font-family:'Helvetica LT Std';-inkscape-font-specification:'Helvetica LT Std Bold Condensed';stroke-width:764.012"
       d="m 181.1437,121.55551 v -12.32156 h 2.93112 c 4.72236,0 5.59084,1.84552 5.59084,6.2422 0,2.06264 -0.2714,4.72236 -2.33404,5.64512 -1.357,0.59708 -2.9854,0.43424 -4.55952,0.43424 z m 0,-18.29236 V 92.787115 h 3.5282 c 3.47392,0.10856 4.12528,1.6284 4.12528,4.668079 0,1.95408 -0.10856,3.365356 -0.8142,4.396676 -1.19416,1.51984 -3.58248,1.41128 -5.428,1.41128 z m 5.80796,24.26316 c 5.428,0 8.35912,-2.1712 9.98752,-7.3278 0.43424,-1.6284 0.5428,-3.31108 0.5428,-4.99376 0,-5.26516 -1.6284,-8.84764 -5.91652,-9.44472 v -0.10856 c 4.12528,-1.51984 4.8852,-4.99376 4.8852,-8.521956 0,-2.768279 -0.2714,-5.102319 -2.00836,-7.327799 -2.1712,-2.76828 -5.37372,-2.9854 -8.63052,-2.9854 H 173.5445 v 40.709995 z"
       id="text1"
       class="st5 st15"
       transform="scale(1.0198039,0.98058068)"
       aria-label="B" /></g></g></svg>
